C:\OpenCap\opencap-processing\Data\7866dab3-7210-45d6-b98e-60491a15613b\OpenSimData\Dynamics\TRJave25\GRF_TRJave25_0.mot
version=1
nRows=4
nColumns=109
inDegrees=yes
endheader 
time	ground_force_SmoothSphereHalfSpaceForce_s1_r_vx	ground_force_SmoothSphereHalfSpaceForce_s1_r_vy	ground_force_SmoothSphereHalfSpaceForce_s1_r_vz	ground_force_SmoothSphereHalfSpaceForce_s1_r_px	ground_force_SmoothSphereHalfSpaceForce_s1_r_py	ground_force_SmoothSphereHalfSpaceForce_s1_r_pz	ground_torque_SmoothSphereHalfSpaceForce_s1_r_x	ground_torque_SmoothSphereHalfSpaceForce_s1_r_y	ground_torque_SmoothSphereHalfSpaceForce_s1_r_z	ground_force_SmoothSphereHalfSpaceForce_s2_r_vx	ground_force_SmoothSphereHalfSpaceForce_s2_r_vy	ground_force_SmoothSphereHalfSpaceForce_s2_r_vz	ground_force_SmoothSphereHalfSpaceForce_s2_r_px	ground_force_SmoothSphereHalfSpaceForce_s2_r_py	ground_force_SmoothSphereHalfSpaceForce_s2_r_pz	ground_torque_SmoothSphereHalfSpaceForce_s2_r_x	ground_torque_SmoothSphereHalfSpaceForce_s2_r_y	ground_torque_SmoothSphereHalfSpaceForce_s2_r_z	ground_force_SmoothSphereHalfSpaceForce_s3_r_vx	ground_force_SmoothSphereHalfSpaceForce_s3_r_vy	ground_force_SmoothSphereHalfSpaceForce_s3_r_vz	ground_force_SmoothSphereHalfSpaceForce_s3_r_px	ground_force_SmoothSphereHalfSpaceForce_s3_r_py	ground_force_SmoothSphereHalfSpaceForce_s3_r_pz	ground_torque_SmoothSphereHalfSpaceForce_s3_r_x	ground_torque_SmoothSphereHalfSpaceForce_s3_r_y	ground_torque_SmoothSphereHalfSpaceForce_s3_r_z	ground_force_SmoothSphereHalfSpaceForce_s4_r_vx	ground_force_SmoothSphereHalfSpaceForce_s4_r_vy	ground_force_SmoothSphereHalfSpaceForce_s4_r_vz	ground_force_SmoothSphereHalfSpaceForce_s4_r_px	ground_force_SmoothSphereHalfSpaceForce_s4_r_py	ground_force_SmoothSphereHalfSpaceForce_s4_r_pz	ground_torque_SmoothSphereHalfSpaceForce_s4_r_x	ground_torque_SmoothSphereHalfSpaceForce_s4_r_y	ground_torque_SmoothSphereHalfSpaceForce_s4_r_z	ground_force_SmoothSphereHalfSpaceForce_s5_r_vx	ground_force_SmoothSphereHalfSpaceForce_s5_r_vy	ground_force_SmoothSphereHalfSpaceForce_s5_r_vz	ground_force_SmoothSphereHalfSpaceForce_s5_r_px	ground_force_SmoothSphereHalfSpaceForce_s5_r_py	ground_force_SmoothSphereHalfSpaceForce_s5_r_pz	ground_torque_SmoothSphereHalfSpaceForce_s5_r_x	ground_torque_SmoothSphereHalfSpaceForce_s5_r_y	ground_torque_SmoothSphereHalfSpaceForce_s5_r_z	ground_force_SmoothSphereHalfSpaceForce_s6_r_vx	ground_force_SmoothSphereHalfSpaceForce_s6_r_vy	ground_force_SmoothSphereHalfSpaceForce_s6_r_vz	ground_force_SmoothSphereHalfSpaceForce_s6_r_px	ground_force_SmoothSphereHalfSpaceForce_s6_r_py	ground_force_SmoothSphereHalfSpaceForce_s6_r_pz	ground_torque_SmoothSphereHalfSpaceForce_s6_r_x	ground_torque_SmoothSphereHalfSpaceForce_s6_r_y	ground_torque_SmoothSphereHalfSpaceForce_s6_r_z	ground_force_SmoothSphereHalfSpaceForce_s1_l_vx	ground_force_SmoothSphereHalfSpaceForce_s1_l_vy	ground_force_SmoothSphereHalfSpaceForce_s1_l_vz	ground_force_SmoothSphereHalfSpaceForce_s1_l_px	ground_force_SmoothSphereHalfSpaceForce_s1_l_py	ground_force_SmoothSphereHalfSpaceForce_s1_l_pz	ground_torque_SmoothSphereHalfSpaceForce_s1_l_x	ground_torque_SmoothSphereHalfSpaceForce_s1_l_y	ground_torque_SmoothSphereHalfSpaceForce_s1_l_z	ground_force_SmoothSphereHalfSpaceForce_s2_l_vx	ground_force_SmoothSphereHalfSpaceForce_s2_l_vy	ground_force_SmoothSphereHalfSpaceForce_s2_l_vz	ground_force_SmoothSphereHalfSpaceForce_s2_l_px	ground_force_SmoothSphereHalfSpaceForce_s2_l_py	ground_force_SmoothSphereHalfSpaceForce_s2_l_pz	ground_torque_SmoothSphereHalfSpaceForce_s2_l_x	ground_torque_SmoothSphereHalfSpaceForce_s2_l_y	ground_torque_SmoothSphereHalfSpaceForce_s2_l_z	ground_force_SmoothSphereHalfSpaceForce_s3_l_vx	ground_force_SmoothSphereHalfSpaceForce_s3_l_vy	ground_force_SmoothSphereHalfSpaceForce_s3_l_vz	ground_force_SmoothSphereHalfSpaceForce_s3_l_px	ground_force_SmoothSphereHalfSpaceForce_s3_l_py	ground_force_SmoothSphereHalfSpaceForce_s3_l_pz	ground_torque_SmoothSphereHalfSpaceForce_s3_l_x	ground_torque_SmoothSphereHalfSpaceForce_s3_l_y	ground_torque_SmoothSphereHalfSpaceForce_s3_l_z	ground_force_SmoothSphereHalfSpaceForce_s4_l_vx	ground_force_SmoothSphereHalfSpaceForce_s4_l_vy	ground_force_SmoothSphereHalfSpaceForce_s4_l_vz	ground_force_SmoothSphereHalfSpaceForce_s4_l_px	ground_force_SmoothSphereHalfSpaceForce_s4_l_py	ground_force_SmoothSphereHalfSpaceForce_s4_l_pz	ground_torque_SmoothSphereHalfSpaceForce_s4_l_x	ground_torque_SmoothSphereHalfSpaceForce_s4_l_y	ground_torque_SmoothSphereHalfSpaceForce_s4_l_z	ground_force_SmoothSphereHalfSpaceForce_s5_l_vx	ground_force_SmoothSphereHalfSpaceForce_s5_l_vy	ground_force_SmoothSphereHalfSpaceForce_s5_l_vz	ground_force_SmoothSphereHalfSpaceForce_s5_l_px	ground_force_SmoothSphereHalfSpaceForce_s5_l_py	ground_force_SmoothSphereHalfSpaceForce_s5_l_pz	ground_torque_SmoothSphereHalfSpaceForce_s5_l_x	ground_torque_SmoothSphereHalfSpaceForce_s5_l_y	ground_torque_SmoothSphereHalfSpaceForce_s5_l_z	ground_force_SmoothSphereHalfSpaceForce_s6_l_vx	ground_force_SmoothSphereHalfSpaceForce_s6_l_vy	ground_force_SmoothSphereHalfSpaceForce_s6_l_vz	ground_force_SmoothSphereHalfSpaceForce_s6_l_px	ground_force_SmoothSphereHalfSpaceForce_s6_l_py	ground_force_SmoothSphereHalfSpaceForce_s6_l_pz	ground_torque_SmoothSphereHalfSpaceForce_s6_l_x	ground_torque_SmoothSphereHalfSpaceForce_s6_l_y	ground_torque_SmoothSphereHalfSpaceForce_s6_l_z	
          6.32000000	        -49.13754710	         27.96413888	          5.29741267	         -5.29728514	         -0.01315455	          0.40555184	          0.00000000	          0.00000000	          0.00000000	         -0.01575192	          0.00875132	         -0.00318166	         -5.15300321	          0.00815450	          0.38928414	          0.00000000	          0.00000000	          0.00000000	         -0.00067230	          0.00041345	         -0.00012222	         -5.17591350	          0.01044220	          0.46925803	          0.00000000	          0.00000000	          0.00000000	         -8.13111819	          4.79788004	         -0.19320508	         -5.23802228	         -0.00140200	          0.43980789	          0.00000000	          0.00000000	          0.00000000	         -0.00000053	          0.00000030	         -0.00000020	         -5.08067119	          0.01783301	          0.40488553	          0.00000000	          0.00000000	          0.00000000	         -0.00000009	          0.00000006	         -0.00000003	         -5.10242514	          0.01872219	          0.48549432	          0.00000000	          0.00000000	          0.00000000	          0.00000000	         -0.00000000	         -0.00000000	         -6.10926375	          0.11726473	          0.30592875	          0.00000000	          0.00000000	          0.00000000	          0.00000000	         -0.00000000	         -0.00000000	         -6.06865525	          0.04667936	          0.34226043	          0.00000000	          0.00000000	          0.00000000	          0.00000000	         -0.00000000	         -0.00000000	         -6.06812414	          0.05173901	          0.25956245	          0.00000000	          0.00000000	          0.00000000	          0.00000000	         -0.00000000	         -0.00000000	         -6.08889220	          0.08501985	          0.28015815	          0.00000000	          0.00000000	          0.00000000	          0.00000000	         -0.00000000	         -0.00000000	         -6.02034501	          0.01559609	          0.34020114	          0.00000000	          0.00000000	          0.00000000	         -0.00000000	          0.00000000	          0.00000000	         -5.99855308	          0.02822384	          0.26364105	          0.00000000	          0.00000000	          0.00000000	
          6.33000000	       -144.67986603	        103.83461767	         26.63539371	         -5.28125391	         -0.01186081	          0.40311722	          0.00000000	          0.00000000	          0.00000000	         -0.01734669	          0.01223024	         -0.00470168	         -5.13568422	          0.00811245	          0.39253624	          0.00000000	          0.00000000	          0.00000000	         -0.00042702	          0.00033784	         -0.00010483	         -5.16189918	          0.01110349	          0.47139453	          0.00000000	          0.00000000	          0.00000000	         -6.68752191	          4.98327130	         -0.01016981	         -5.22310204	         -0.00039707	          0.43959658	          0.00000000	          0.00000000	          0.00000000	         -0.00000079	          0.00000059	         -0.00000042	         -5.06376596	          0.01747423	          0.41101340	          0.00000000	          0.00000000	          0.00000000	         -0.00000006	          0.00000005	         -0.00000003	         -5.08897837	          0.01923452	          0.49055028	          0.00000000	          0.00000000	          0.00000000	         -0.00000000	         -0.00000000	          0.00000000	         -6.04915081	          0.12186483	          0.28963955	          0.00000000	          0.00000000	          0.00000000	         -0.00000000	         -0.00000000	          0.00000000	         -6.02017056	          0.04985718	          0.32594327	          0.00000000	          0.00000000	          0.00000000	         -0.00000000	         -0.00000000	          0.00000000	         -6.01347566	          0.05547592	          0.24366000	          0.00000000	          0.00000000	          0.00000000	         -0.00000000	         -0.00000000	          0.00000000	         -6.03127171	          0.08921203	          0.26407449	          0.00000000	          0.00000000	          0.00000000	         -0.00000934	          0.00000336	          0.00000300	         -5.97865026	          0.01621305	          0.32466539	          0.00000000	          0.00000000	          0.00000000	         -0.00000000	          0.00000000	          0.00000000	         -5.95202520	          0.02747508	          0.24878426	          0.00000000	          0.00000000	          0.00000000	
          6.34000000	       -188.00959402	        160.70779224	          9.13247128	         -5.27101887	         -0.01097451	          0.40141619	          0.00000000	          0.00000000	          0.00000000	         -0.04125141	          0.03813451	         -0.02588886	         -5.12431096	          0.00737531	          0.39611128	          0.00000000	          0.00000000	          0.00000000	         -0.00035457	          0.00039603	         -0.00026640	         -5.15352573	          0.01127657	          0.47374669	          0.00000000	          0.00000000	          0.00000000	         -5.71813330	          5.29044945	         -1.55265935	         -5.21389070	          0.00016753	          0.43985895	          0.00000000	          0.00000000	          0.00000000	         -0.00000300	          0.00000318	         -0.00000310	         -5.05280696	          0.01630964	          0.41720202	          0.00000000	          0.00000000	          0.00000000	         -0.00000006	          0.00000008	         -0.00000008	         -5.08116402	          0.01913295	          0.49554848	          0.00000000	          0.00000000	          0.00000000	         -0.00000000	         -0.00000000	          0.00000000	         -5.99099930	          0.12223007	          0.27977494	          0.00000000	          0.00000000	          0.00000000	         -0.00000000	         -0.00000000	          0.00000000	         -5.96795542	          0.04941507	          0.31382054	          0.00000000	          0.00000000	          0.00000000	         -0.00000000	         -0.00000000	          0.00000000	         -5.95824054	          0.05577246	          0.23205505	          0.00000000	          0.00000000	          0.00000000	         -0.00000000	         -0.00000000	          0.00000000	         -5.97445965	          0.08956857	          0.25336660	          0.00000000	          0.00000000	          0.00000000	         -0.00010166	          0.00003400	          0.00003520	         -5.93126904	          0.01431511	          0.31128721	          0.00000000	          0.00000000	          0.00000000	         -0.00000000	          0.00000000	          0.00000000	         -5.90329300	          0.02498144	          0.23554797	          0.00000000	          0.00000000	          0.00000000	
          6.35000000	       -141.17152491	        266.42440984	         19.63004746	         -5.26608775	         -0.01063914	          0.40071053	          0.00000000	          0.00000000	          0.00000000	         -0.11649890	          0.34998231	         -0.36046142	         -5.11825316	          0.00550947	          0.40051080	          0.00000000	          0.00000000	          0.00000000	          0.00032182	          0.00115431	         -0.00111606	         -5.15026217	          0.01070687	          0.47672767	          0.00000000	          0.00000000	          0.00000000	          0.28267004	          9.08022120	         -7.47826446	         -5.20988026	          0.00009951	          0.44092865	          0.00000000	          0.00000000	          0.00000000	         -0.00001430	          0.00007521	         -0.00009053	         -5.04713267	          0.01379709	          0.42406850	          0.00000000	          0.00000000	          0.00000000	          0.00000013	          0.00000046	         -0.00000052	         -5.07842433	          0.01804954	          0.50102740	          0.00000000	          0.00000000	          0.00000000	         -0.00000000	         -0.00000000	          0.00000000	         -5.93176250	          0.12199863	          0.27117251	          0.00000000	          0.00000000	          0.00000000	         -0.00000000	         -0.00000000	          0.00000000	         -5.91413923	          0.04832395	          0.30076642	          0.00000000	          0.00000000	          0.00000000	         -0.00000000	         -0.00000000	          0.00000000	         -5.90056520	          0.05599548	          0.22000767	          0.00000000	          0.00000000	          0.00000000	         -0.00000000	         -0.00000000	          0.00000000	         -5.91586324	          0.08960697	          0.24309428	          0.00000000	          0.00000000	          0.00000000	         -0.00091092	          0.00029679	          0.00036456	         -5.88171308	          0.01220610	          0.29617512	          0.00000000	          0.00000000	          0.00000000	         -0.00000000	          0.00000000	          0.00000000	         -5.85167175	          0.02309279	          0.22135793	          0.00000000	          0.00000000	          0.00000000	
